# xmcd
#
# Track frame offsets:
# 4650
# 40282
# 55602
# 74273
# 97091
# 121847
# 143988
# 181731
# 206787
# 223916
# 255568
# 293212
# 316721
#
# Disc length: 4430 seconds
#
#
# Revision: 8
# Processed by: cddbd v1.5.2PL0 Copyright (c) Steve Scherf et al.
# Submitted via: FreeRIP 2.93 
#
DISCID=cb11100d
DTITLE=Diante do Trono - Diante do Trono 8 - Ainda Existe Uma Cruz
DYEAR=2005
DGENRE=Gospel
TTITLE0=Isaías 40
TTITLE1=Senhor dos Exércitos, Rei
TTITLE2=Rei da Glória
TTITLE3=A Ele a Glória
TTITLE4=Tu és Rei
TTITLE5=Ainda Existe uma Cruz
TTITLE6=Quero Seguir-te
TTITLE7=Coração Todo Teu
TTITLE8=Espontâneo
TTITLE9=Usa-me
TTITLE10=Faz-nos Um
TTITLE11=Aleluia
TTITLE12=Espontâneo
EXTD=
EXTT0=
EXTT1=
EXTT2=
EXTT3=
EXTT4=
EXTT5=
EXTT6=
EXTT7=
EXTT8=
EXTT9=
EXTT10=
EXTT11=
EXTT12=
PLAYORDER=
